<svg width="100" height="100" viewBox="0 0 100 100" fill="none" xmlns="http://www.w3.org/2000/svg">
    <g clip-path="url(#clip0_63_216)">
        <mask id="mask0_63_216" style="mask-type:alpha" maskUnits="userSpaceOnUse" x="-4" y="2"
            width="108" height="96">
            <rect x="-3.17285" y="2.48657" width="106.345" height="95.0269" fill="white" />
        </mask>
        <g mask="url(#mask0_63_216)">
            <path
                d="M7.94385 58.189L15.2937 57.7659C15.9765 57.7266 16.4947 57.5405 16.8482 57.2076C17.2009 56.8628 17.3587 56.3669 17.3214 55.7199C17.2842 55.073 17.0706 54.5985 16.6805 54.2964C16.2779 53.9831 15.7411 53.8457 15.0702 53.8843L7.72037 54.3075L7.51758 50.7853L14.8674 50.3621C16.0295 50.2952 17.038 50.4836 17.8929 50.9272C18.7358 51.3715 19.3914 52.0068 19.8597 52.8333C20.3153 53.6484 20.3683 54.4272 20.4276 55.4575C20.4869 56.4878 20.5409 57.5659 20.1804 58.404C19.8073 59.2309 19.2269 59.9013 18.4392 60.4155C17.6507 60.9176 16.6695 61.2025 15.4954 61.2701L8.1456 61.6932L7.94385 58.189Z"
                fill="#000000" />
            <path
                d="M25.8258 35.6631L24.2521 38.8206L15.8091 39.8617L22.1563 43.0253L20.5826 46.1828L9.22513 40.522L10.7989 37.3645L19.3224 36.3636L12.8946 33.1598L14.4684 30.0023L25.8258 35.6631Z"
                fill="#000000" />
            <path
                d="M23.5493 20.9636L31.7742 30.6273L29.0875 32.9139L20.8626 23.2502L23.5493 20.9636Z"
                fill="#000000" />
            <path
                d="M41.8257 25.5554C40.7885 26.1348 39.7005 26.4263 38.5618 26.4301C37.4172 26.4234 36.3483 26.1339 35.3551 25.5616C34.3666 24.9729 33.568 24.1338 32.9594 23.0443C32.3508 21.9547 32.058 20.84 32.081 19.7C32.1087 18.5437 32.4227 17.4818 33.023 16.5142C33.6234 15.5465 34.4421 14.7731 35.4793 14.1937C36.5269 13.6085 37.6149 13.317 38.7431 13.319C39.8819 13.3153 40.9455 13.6077 41.9341 14.1963C42.9168 14.7745 43.7125 15.6084 44.3211 16.6979C44.9297 17.7875 45.2254 18.9075 45.2082 20.0579C45.1852 21.1979 44.8764 22.2569 44.2819 23.235C43.6816 24.2026 42.8628 24.9761 41.8257 25.5554ZM40.2281 22.6954C41.0138 22.2565 41.4886 21.6545 41.6523 20.8896C41.8265 20.1187 41.6737 19.3038 41.1939 18.4447C40.7023 17.5647 40.0856 17.002 39.3437 16.7566C38.6065 16.4949 37.845 16.5835 37.0593 17.0224C36.2631 17.4671 35.7831 18.072 35.6194 18.8369C35.4498 19.5914 35.6108 20.4087 36.1023 21.2887C36.588 22.1583 37.1995 22.7239 37.9367 22.9856C38.6681 23.2369 39.4319 23.1401 40.2281 22.6954Z"
                fill="#000000" />
            <path
                d="M61.5574 26.9913L58.1309 26.1511L55.257 18.1444L53.568 25.0323L50.1415 24.1922L53.1636 11.8673L56.5901 12.7074L59.4426 20.8016L61.153 13.8262L64.5795 14.6664L61.5574 26.9913Z"
                fill="#000000" />
            <path
                d="M33.3289 81.6618C33.6557 81.9942 33.8349 82.3798 33.8664 82.8187C33.9081 83.2553 33.8079 83.6618 33.5659 84.038C33.2088 84.593 32.7378 84.9048 32.1531 84.9733C31.5684 85.0418 30.9307 84.8538 30.24 84.4094L27.0115 82.3322L31.2076 75.8105L34.3343 77.8223C35.0004 78.2508 35.4263 78.7341 35.612 79.2722C35.8039 79.8142 35.7272 80.3535 35.382 80.89C35.136 81.2724 34.8279 81.5276 34.4577 81.6557C34.0977 81.7815 33.7214 81.7836 33.3289 81.6618ZM31.3542 79.5672L32.27 80.1565C32.7264 80.4501 33.0756 80.4088 33.3176 80.0326C33.5676 79.6441 33.4644 79.303 33.0081 79.0094L32.0922 78.4202L31.3542 79.5672ZM30.8196 82.7157C31.276 83.0093 31.6271 82.9649 31.8732 82.5826C32.0001 82.3852 32.0357 82.1945 31.9798 82.0103C31.9301 81.83 31.7942 81.6685 31.5722 81.5257L30.5269 80.8531L29.765 82.0372L30.8196 82.7157Z"
                fill="#000000" />
            <path
                d="M40.4044 87.3071L37.7721 86.5111L37.0058 87.6009L34.8368 86.945L39.7877 80.3403L42.1672 81.06L42.6178 89.2981L40.4383 88.639L40.4044 87.3071ZM40.3661 85.5718L40.2919 82.9291L38.7762 85.0909L40.3661 85.5718Z"
                fill="#000000" />
            <path
                d="M49.5256 89.5993L47.9884 86.7378L47.7574 86.7376L47.7546 89.5976L45.5986 89.5955L45.6062 81.8405L49.0052 81.8438C49.6285 81.8444 50.1564 81.955 50.5888 82.1754C51.0213 82.3885 51.3473 82.6858 51.567 83.0674C51.7866 83.4416 51.8962 83.8633 51.8957 84.3327C51.8952 84.8607 51.7481 85.3262 51.4543 85.7292C51.168 86.125 50.746 86.4069 50.1885 86.575L51.9345 89.6017L49.5256 89.5993ZM47.7588 85.2636L48.8258 85.2647C49.1191 85.265 49.3392 85.1955 49.486 85.0563C49.6328 84.9171 49.7063 84.7155 49.7066 84.4515C49.7068 84.2022 49.63 84.0078 49.4762 83.8683C49.3297 83.7215 49.1134 83.6479 48.8274 83.6477L47.7604 83.6466L47.7588 85.2636Z"
                fill="#000000" />
            <path
                d="M58.9189 84.243C59.3851 84.2415 59.7861 84.3828 60.1221 84.667C60.4635 84.9423 60.6842 85.298 60.7842 85.734C60.9316 86.3773 60.8256 86.932 60.4659 87.3982C60.1063 87.8643 59.5262 88.1891 58.7256 88.3726L54.9837 89.2303L53.2511 81.6713L56.8752 80.8406C57.6471 80.6637 58.2905 80.6968 58.8051 80.94C59.3269 81.1815 59.6591 81.6132 59.8017 82.2351C59.9032 82.6783 59.8705 83.077 59.7034 83.4313C59.5418 83.7768 59.2804 84.0473 58.9189 84.243ZM56.0407 84.1918L57.1022 83.9485C57.6312 83.8272 57.8457 83.5486 57.7457 83.1126C57.6425 82.6622 57.3264 82.4977 56.7975 82.6189L55.736 82.8622L56.0407 84.1918ZM57.9192 86.7744C58.4481 86.6531 58.6618 86.3709 58.5603 85.9277C58.5078 85.699 58.3962 85.5403 58.2254 85.4515C58.0617 85.3611 57.8512 85.3454 57.5939 85.4044L56.3823 85.6821L56.6969 87.0545L57.9192 86.7744Z"
                fill="#000000" />
            <path
                d="M63.1187 80.2028L63.7213 81.315L65.8975 80.136L66.6782 81.5771L64.5021 82.7561L65.1676 83.9844L67.6339 82.6482L68.4565 84.1667L64.0946 86.5299L60.4004 79.7113L64.7623 77.3481L65.585 78.8666L63.1187 80.2028Z"
                fill="#000000" />
            <path
                d="M74.3094 79.3502L71.2319 78.3109L71.0631 78.4685L73.015 80.5589L71.4392 82.0303L66.1464 76.3623L68.6307 74.0425C69.0863 73.6171 69.5473 73.3371 70.0137 73.2026C70.4751 73.0627 70.9163 73.0571 71.3373 73.1857C71.7534 73.3089 72.1216 73.542 72.4419 73.885C72.8022 74.2709 73.0129 74.7114 73.0737 75.2064C73.135 75.691 73.0195 76.1851 72.7272 76.6888L76.0701 77.706L74.3094 79.3502ZM70.0571 77.3912L70.8369 76.663C71.0513 76.4628 71.1646 76.2617 71.1767 76.0598C71.1888 75.8578 71.1047 75.6604 70.9245 75.4674C70.7544 75.2852 70.5655 75.1957 70.3578 75.199C70.1505 75.1919 69.9424 75.2859 69.7333 75.4811L68.9535 76.2094L70.0571 77.3912Z"
                fill="#000000" />
            <path
                d="M76.9159 60.2184L84.1826 62.9268L83.4297 64.947L80.5127 63.8598L79.5945 66.3233L82.5115 67.4105L81.7586 69.4307L74.4919 66.7224L75.2448 64.7021L77.9763 65.7202L78.8944 63.2567L76.163 62.2387L76.9159 60.2184Z"
                fill="#000000" />
            <path
                d="M85.1061 56.8004C84.8217 57.4684 84.4051 58.0163 83.8562 58.4441C83.3007 58.8691 82.6759 59.1291 81.9818 59.2241C81.2839 59.3095 80.5841 59.2029 79.8824 58.9041C79.1807 58.6053 78.6221 58.1762 78.2068 57.6167C77.7876 57.0477 77.542 56.417 77.4701 55.7249C77.3982 55.0327 77.5044 54.3526 77.7888 53.6847C78.0761 53.0099 78.4928 52.462 79.0387 52.0409C79.5875 51.6131 80.2109 51.3564 80.9088 51.271C81.6 51.1828 82.2964 51.288 82.9981 51.5868C83.6998 51.8856 84.2617 52.3161 84.6838 52.8785C85.0992 53.4379 85.3462 54.0652 85.4249 54.7602C85.4968 55.4524 85.3905 56.1324 85.1061 56.8004ZM83.2641 56.0161C83.4796 55.51 83.4838 55.0416 83.2767 54.6107C83.0725 54.173 82.6938 53.8364 82.1405 53.6008C81.5738 53.3595 81.0653 53.3183 80.615 53.4773C80.1608 53.6266 79.826 53.9543 79.6106 54.4604C79.3922 54.9731 79.3866 55.445 79.5937 55.8759C79.794 56.3039 80.1775 56.6386 80.7443 56.8799C81.3043 57.1184 81.8114 57.1629 82.2655 57.0136C82.7129 56.8614 83.0458 56.5289 83.2641 56.0161Z"
                fill="#000000" />
            <path
                d="M78.6327 43.2576C79.0869 43.1395 79.5298 43.138 79.9613 43.2532C80.3839 43.3631 80.7641 43.6014 81.1019 43.9682C81.4308 44.3297 81.6745 44.8157 81.8332 45.4261L82.1017 46.4588L84.6355 45.8001L85.1779 47.8867L77.6724 49.8379L76.8615 46.7186C76.7046 46.1153 76.6783 45.5766 76.7823 45.1025C76.8845 44.6213 77.0961 44.2253 77.4169 43.9146C77.7377 43.6039 78.1429 43.3849 78.6327 43.2576ZM80.225 46.0601C80.0719 45.471 79.7256 45.2466 79.1862 45.3868C78.6397 45.5289 78.443 45.8945 78.5961 46.4836L78.812 47.314L80.4409 46.8905L80.225 46.0601Z"
                fill="#000000" />
            <path fill-rule="evenodd" clip-rule="evenodd"
                d="M84.0467 13.4263C84.1342 14.2831 84.3137 16.0469 83.1724 18.0529C83.8863 18.6825 84.3996 19.4757 84.7191 20.3508C85.6315 22.4582 85.367 24.7721 84.3689 26.7138C85.8838 26.4036 87.5413 26.6533 88.9602 27.3469C90.4796 28.0897 91.7375 29.348 92.2496 30.9918C92.7517 32.6031 92.4123 34.3871 91.5404 35.8522C90.6685 37.3173 89.2543 38.4798 87.5844 38.8368C85.4612 39.2907 83.424 38.709 81.4385 38.142C81.0981 38.0449 80.7592 37.9481 80.4217 37.857C80.0167 37.7758 79.3855 37.8536 78.6128 38.0453C77.8441 38.2359 76.9583 38.533 76.0595 38.8691C74.7921 39.3429 73.5095 39.89 72.5007 40.3203C72.0772 40.501 71.7011 40.6614 71.3955 40.7868L70.9412 40.9731C72.734 44.1672 73.8644 47.7436 74.1638 51.4714C74.4787 55.3918 73.8963 59.3411 72.4674 63.0009C70.7277 67.4563 67.7331 71.4826 63.5787 74.501C59.4242 77.5194 54.6696 79.1232 49.8946 79.4009C45.9724 79.629 42.0364 78.9625 38.4053 77.4516C34.39 75.7809 30.748 73.0779 27.9128 69.4141C25.9034 70.6141 23.79 71.8392 22.5507 72.4589L22.5403 72.4641L22.5292 72.4676C21.442 72.8093 20.7099 72.7989 20.2331 72.6222C19.7509 72.4435 19.5389 72.0966 19.5069 71.8084L19.498 71.7277L26.0131 66.601C23.9789 63.1212 22.8433 59.3195 22.5611 55.4941C22.2641 51.4681 22.9121 47.4162 24.4507 43.6833C26.2133 39.4065 29.1449 35.5488 33.1592 32.6322C37.1735 29.7156 41.7483 28.1197 46.3605 27.7648C50.3861 27.4552 54.44 28.0909 58.1771 29.6175C61.3155 30.8995 64.1284 32.7946 66.4901 35.1309C66.7526 34.8224 67.0351 34.4943 67.3371 34.1437L67.338 34.1425C68.695 32.5665 70.4497 30.5286 72.5709 27.7445C72.4244 25.1849 72.2531 22.1901 73.872 19.9618C74.8991 18.5482 76.3932 17.4655 77.9959 16.9981C78.8436 16.7508 79.7233 16.6755 80.5797 16.8156C80.7499 16.6073 80.9172 16.3691 81.0754 16.0947C81.6723 15.0595 82.1471 13.4971 82.1471 11.0656C82.1471 10.8629 82.1698 10.7001 82.2248 10.5862C82.2533 10.5271 82.2946 10.4726 82.3544 10.437C82.4163 10.4001 82.4842 10.3919 82.5483 10.4027C82.6652 10.4225 82.7743 10.5058 82.8671 10.5992C82.9649 10.6976 83.0658 10.8292 83.165 10.9816C83.5589 11.5874 83.9713 12.5972 84.0467 13.4263ZM59.0666 32.7041C61.2628 33.829 63.2508 35.3006 64.9681 37.0339C64.6448 37.4927 64.3848 37.933 64.2213 38.3576C64.0536 38.7932 63.9586 39.2796 64.0394 39.7959C64.1212 40.319 64.365 40.7557 64.6799 41.1178C64.9439 41.4214 65.2595 41.7084 65.6592 41.9113C66.0717 42.1207 66.5043 42.2056 66.9499 42.2002C67.4726 42.1937 68.0412 42.0586 68.6567 41.8549C70.0377 44.2358 71.0077 46.8596 71.4772 49.6042C70.7382 49.2111 69.8111 48.6447 68.77 47.8478C67.181 46.6316 65.3215 44.8745 63.4578 42.3683C61.5541 39.8083 60.4492 37.4981 59.8081 35.6345C59.4081 34.4718 59.1874 33.4792 59.0666 32.7041ZM37.4596 74.3195C34.6499 72.8454 32.1013 70.7777 30.0146 68.1466C30.7766 67.6829 31.5066 67.2335 32.0313 66.9078C32.1421 66.4784 32.1328 65.7776 31.6964 65.239C31.2579 64.698 30.3784 64.2947 28.944 64.2947L27.9479 65.0786C26.5528 62.6114 25.651 59.9746 25.2217 57.2938C25.9216 57.6482 26.7973 58.1648 27.7796 58.9046C29.3539 60.0902 31.2096 61.8549 33.056 64.4565C34.8636 67.0035 35.9601 69.3149 36.6258 71.2019C37.062 72.4384 37.3141 73.4952 37.4596 74.3195ZM75.843 21.3938C77.4216 19.2211 79.8717 18.6938 81.2943 19.6714C82.9888 21.261 83.1031 23.765 81.7223 25.6654C80.3395 27.5687 77.533 28.2583 75.7173 26.6515C75.1792 26.0363 74.959 25.0688 75.0043 24.0668C75.0496 23.0634 75.36 22.0586 75.843 21.3938ZM88.0306 29.3623C87.0214 29.0153 85.7568 29.0486 84.4494 29.5115C81.9374 30.4011 80.8155 32.7714 81.4672 34.6866L81.473 34.6994C81.9613 35.7819 82.6582 36.3991 83.5226 36.7105C85.6839 37.489 88.553 36.7136 89.7767 34.6881C90.2962 33.8283 90.4855 32.7686 90.2124 31.5559L90.2101 31.546L90.2065 31.5364C89.861 30.6216 88.9753 29.687 88.0306 29.3623ZM69.1265 38.1715C69.9764 38.0029 72.2428 37.2606 74.2796 36.4837C75.2958 36.0961 77.2479 35.2201 78.0181 34.8708C78.2783 34.7273 78.4417 34.6151 78.5096 34.5408C78.6526 34.3846 78.7133 34.1969 78.7431 33.9421C78.7581 33.8137 78.7933 33.1471 78.8 32.9869C78.8574 32.2709 79.0369 31.3491 79.7861 30.1456C78.9006 30.2816 78.1208 30.158 77.3682 30.0387C76.4875 29.9004 75.494 29.7668 74.4894 30.066C74.0434 30.6013 72.7335 32.1737 72.101 32.9448C70.8329 34.4908 69.0636 36.8189 68.6133 37.502C68.7879 37.7224 68.959 37.9456 69.1265 38.1715ZM30.6724 55.5711C31.2606 54.1778 32.1283 52.3784 33.3291 50.4729C35.4789 52.2733 37.8747 54.6332 40.2849 57.6857L34.3091 62.0529C32.8085 60.1 31.307 58.617 29.9314 57.4963C30.0926 57.0285 30.3362 56.3677 30.6724 55.5711ZM27.1199 46.2141C26.7969 46.0419 26.5085 45.8966 26.259 45.7759C25.2757 48.5747 24.8289 51.5413 24.9451 54.5071C25.1408 54.5815 25.3654 54.6729 25.6154 54.784C26.2315 55.058 27.0019 55.4521 27.8771 56.0089C28.0267 55.6076 28.2094 55.1415 28.428 54.6237C29.0779 53.0841 30.0482 51.0777 31.4069 48.9554C29.6871 47.6785 28.2071 46.7938 27.1199 46.2141ZM38.6103 69.5517C37.9649 67.9076 37.0413 66.0422 35.7212 64.0383L41.697 59.6711C43.7659 62.9013 45.2145 65.8635 46.2291 68.4257C44.081 68.9504 42.1269 69.237 40.6349 69.3932C39.794 69.4812 39.1029 69.5274 38.6103 69.5517ZM47.066 70.7282C44.6853 71.3258 42.5223 71.6451 40.8885 71.8161C40.3326 71.8743 39.8368 71.9154 39.4132 71.9445C39.7149 73.03 39.8838 73.9512 39.9778 74.6683C40.0189 74.982 40.0457 75.2566 40.0629 75.4887C42.7639 76.5091 45.6336 77.0238 48.5168 77.0081C48.4834 76.713 48.4373 76.3656 48.374 75.9692C48.17 74.6927 47.7866 72.9082 47.066 70.7282ZM48.5884 67.7688C47.5007 64.9769 45.9317 61.7476 43.6693 58.2338L47.9792 55.1025L55.0847 64.8823C52.9974 66.1549 50.7557 67.0873 48.5884 67.7688ZM49.412 70.0635C50.1552 72.3306 50.5596 74.2079 50.7796 75.5848C50.8586 76.0787 50.9138 76.5082 50.9523 76.8682C54.4897 76.4795 57.9817 75.2794 61.143 73.2209L56.5209 66.8591C54.2099 68.2917 51.7505 69.3216 49.412 70.0635ZM58.4918 65.4272C60.5684 63.672 62.3078 61.6512 63.7361 59.6564C65.6625 61.0639 67.323 62.0286 68.5645 62.6633C69.0099 62.891 69.4013 63.0762 69.7317 63.2242C68.269 66.4683 66.0486 69.4185 63.1139 71.7889L58.4918 65.4272ZM49.9501 53.6705L57.0556 63.4504C58.9108 61.8585 60.4903 60.0147 61.8082 58.1641C59.4891 56.2668 56.9026 53.7767 54.2599 50.5392L49.9501 53.6705ZM48.5181 51.6996L41.4631 41.9892C43.5023 40.6546 45.6535 39.6905 47.7259 38.9956C48.8449 41.8151 50.4651 45.0785 52.8101 48.5813L48.5181 51.6996ZM34.7098 48.4524C37.0455 50.3878 39.6485 52.9372 42.2552 56.2499L46.5472 53.1315L39.4922 43.4211C37.5927 44.9481 36.0111 46.6961 34.7098 48.4524ZM55.7438 37.3557C56.6054 37.282 57.3091 37.2546 57.8038 37.2458C58.4445 38.9004 59.391 40.7867 60.7846 42.8173L54.7845 47.1511C52.6262 43.9156 51.1222 40.9078 50.0742 38.3068C52.2575 37.7537 54.237 37.4844 55.7438 37.3557ZM56.2364 49.1077C58.6691 52.0734 61.0387 54.3665 63.162 56.1232C64.3248 54.2424 65.2013 52.4725 65.8108 51.1017C66.1544 50.3292 66.4119 49.6862 66.5873 49.2253C65.223 48.1034 63.7343 46.6486 62.2365 44.7739L56.2364 49.1077ZM68.0368 52.0917C68.2639 51.581 68.4563 51.1222 68.6148 50.7283C69.554 51.3506 70.3779 51.796 71.0309 52.1069C71.3165 52.243 71.5693 52.3533 71.7848 52.4414C71.9206 55.3255 71.5233 58.2139 70.6174 60.9511C70.3471 60.8281 70.0309 60.6769 69.6735 60.4942C68.5225 59.9058 66.9438 58.9897 65.0932 57.6306C66.3972 55.5512 67.3693 53.5927 68.0368 52.0917ZM27.1864 43.5189C27.4945 43.6654 27.8566 43.846 28.2661 44.0644C29.4367 44.6885 30.9956 45.6214 32.7916 46.9493C34.2066 45.0472 35.9462 43.1306 38.0587 41.4481L33.624 35.3442C30.8073 37.6193 28.6487 40.4285 27.1864 43.5189ZM40.0296 40.0161L35.5949 33.9123C38.629 31.9365 41.9677 30.7516 45.3587 30.3159C45.4029 30.6542 45.4628 31.0544 45.5439 31.5114C45.7758 32.8175 46.1813 34.5884 46.8891 36.7068C44.6429 37.4648 42.2826 38.527 40.0296 40.0161ZM47.7919 30.1313C47.8295 30.406 47.8786 30.7251 47.9426 31.0855C48.158 32.2987 48.542 33.9796 49.2249 36.0098C51.6632 35.3734 53.8713 35.0706 55.5363 34.9283C56.0963 34.8805 56.5961 34.8506 57.024 34.8325C56.7649 33.828 56.6282 32.9735 56.558 32.3029C56.5295 32.0308 56.512 31.789 56.5018 31.5798C53.717 30.5528 50.7575 30.0611 47.7919 30.1313Z"
                fill="#000000" />
            <path
                d="M75.3694 70.6945C73.9648 70.6945 74.6484 69.0818 74.9926 68.8915L72.9572 68.5644C71.4979 71.1128 73.0602 72.6206 73.9902 72.7619C74.9203 72.9031 75.8687 72.5966 76.2473 72.7619C76.626 72.9272 76.7728 73.2726 76.7782 73.6906C76.7837 74.1134 76.6135 74.6683 76.4294 75.0866L78.5616 75.1577C79.9883 72.3554 78.6345 71.0146 77.7792 70.6945H75.3694Z"
                fill="#000000" />
        </g>
    </g>
    <defs>
        <clipPath id="clip0_63_216">
            <rect width="100" height="100" fill="white" />
        </clipPath>
    </defs>
</svg>