<svg width="1038" height="1038" viewBox="0 0 1038 1038" fill="none"
    xmlns="http://www.w3.org/2000/svg">
    <mask id="mask0_301_226" style="mask-type:alpha" maskUnits="userSpaceOnUse" x="0" y="0"
        width="1038" height="1038">
        <rect width="1038" height="1038" fill="#D9D9D9" />
    </mask>
    <g mask="url(#mask0_301_226)">
        <path fill-rule="evenodd" clip-rule="evenodd"
            d="M753.841 683.844C744.201 711.132 705.88 733.707 675.32 740.309C654.4 744.75 627.12 748.263 535.2 710.172C431.96 667.399 288.6 515.039 288.6 413.648C288.6 362.033 318.36 301.93 370.4 301.93C395.44 301.93 400.96 302.418 409.2 322.184C418.84 345.471 442.36 402.845 445.16 408.727C456.72 432.854 433.4 446.978 416.48 467.984C411.08 474.306 404.96 481.143 411.8 492.906C418.6 504.43 442.12 542.762 476.68 573.531C521.32 613.303 557.52 626.001 570.48 631.402C580.12 635.404 591.64 634.472 598.68 626.949C607.6 617.306 618.68 601.308 629.96 585.543C637.92 574.259 648.04 572.85 658.64 576.852C665.8 579.332 756.8 621.593 760.64 628.355C763.48 633.277 763.481 656.555 753.841 683.844ZM521.08 119H520.88C300.36 119 121 298.414 121 519C121 606.466 149.2 687.614 197.16 753.434L147.32 902.066L301.04 852.945C364.28 894.798 439.76 919 521.08 919C741.6 919 921 739.586 921 519C921 298.414 741.6 119 521.08 119Z"
            fill="#8D8D94" />
    </g>
</svg>